<?xml version="1.0" encoding="utf-8"?>
<!-- Generator: Adobe Illustrator 28.0.0, SVG Export Plug-In . SVG Version: 6.00 Build 0)  -->
<svg version="1.1" id="Layer_1" xmlns="http://www.w3.org/2000/svg" xmlns:xlink="http://www.w3.org/1999/xlink" x="0px" y="0px"
	 viewBox="0 0 852.1 295.9" style="enable-background:new 0 0 852.1 295.9;" xml:space="preserve">
<style type="text/css">
	.st0{fill:#F9F9F9;}
	.st1{fill:url(#SVGID_1_);}
	.st2{enable-background:new    ;}
</style>
<polygon class="st0" points="94,35 21.7,76.4 18.4,104.8 94,130.7 177.1,103.9 167.5,66.8 "/>
<linearGradient id="SVGID_1_" gradientUnits="userSpaceOnUse" x1="96.4508" y1="739.866" x2="96.9914" y2="512.8199" gradientTransform="matrix(1 0 0 1 0 -470)">
	<stop  offset="0.1023" style="stop-color:#FF9853"/>
	<stop  offset="0.4213" style="stop-color:#B72121"/>
</linearGradient>
<path class="st1" d="M185.1,102.1L185.1,102.1c0-28.4-20.9-51.6-47-52.3c-8.2-13.6-24.3-22.1-42.2-22.1s-34.1,8.6-42.3,22.2
	c-25.1,1.9-45,24.5-45,52.2v0.1H8.5l35.2,174.1h30.5c0,0,1.8-17.4,21.7-17.4s17.8,17.4,17.8,17.4h34.7l36.8-174.1h-0.1V102.1z
	 M121.6,102.1c0,0,0.2,23.2-25.7,23.2S69,102.1,69,102.1H21.7c0-21.6,15.8-39.1,35-39.1h0.5l4.4,0.1l1.8-3.8
	c5.2-11,18.2-18.4,32.4-18.4s27.3,7.4,32.4,18.5l1.9,4.1l5.2-0.3c0.4,0,0.9-0.1,1.4-0.1c19.4,0,35.2,17.5,35.2,39.1L121.6,102.1
	L121.6,102.1z"/>
<g class="st2">
	<path class="st0" d="M261.6,121.9c-1.4,0-2.8,0.2-4.3,0.6s-2.9,1-4.1,1.9c-1.2,0.9-2.2,2.2-3,3.8c-0.8,1.6-1.2,3.7-1.2,6.3v10h20.5
		v21H249v69.7h-24.7v-69.7H209v-21h15.1v-10.3c0-5.2,0.8-9.8,2.3-13.9s3.7-7.7,6.6-10.6c2.9-3,6.4-5.2,10.4-6.8
		c4.1-1.6,8.6-2.4,13.6-2.4c2.6,0,5,0.2,7.3,0.6s3.9,0.8,4.9,1.3v20.7c-0.6-0.2-1.5-0.5-2.8-0.6C265.3,122,263.6,121.9,261.6,121.9z
		"/>
	<path class="st0" d="M278.5,210.4c0-4.1,0.7-7.7,2.1-10.8s3.3-5.9,5.8-8.2s5.3-4.2,8.6-5.5c3.3-1.4,6.8-2.3,10.6-2.9l22.3-3.3
		c2.6-0.4,4.4-1.1,5.3-2.3c1-1.2,1.5-2.5,1.5-4.1c0-3.2-1.3-6-3.8-8.3s-6.4-3.5-11.5-3.5c-5.4,0-9.6,1.5-12.4,4.4
		c-2.9,3-4.5,6.4-4.9,10.3l-21.8-4.6c0.4-3.6,1.5-7.1,3.3-10.7c1.8-3.6,4.4-6.8,7.6-9.6s7.1-5.1,11.8-6.9c4.7-1.8,10.1-2.7,16.2-2.7
		c7.1,0,13.2,1,18.3,2.9c5,1.9,9.1,4.4,12.3,7.6s5.4,6.8,6.8,11s2.1,8.5,2.1,13.1v44.6c0,2.5,0.1,5.1,0.4,7.8c0.2,2.8,0.5,5,0.7,6.5
		h-22.5c-0.2-1.2-0.5-2.9-0.6-5.1c-0.2-2.1-0.3-4.1-0.3-5.8c-2.3,3.6-5.7,6.7-10,9.4c-4.4,2.7-9.9,4.1-16.7,4.1
		c-4.8,0-9.1-0.8-13-2.3s-7.2-3.6-9.9-6.1c-2.7-2.5-4.8-5.4-6.2-8.7C279.2,217.4,278.5,214,278.5,210.4z M314.8,219.5
		c2.6,0,5.1-0.3,7.5-1s4.5-1.8,6.4-3.5s3.3-3.8,4.4-6.5c1.1-2.6,1.7-6,1.7-10v-4.1l-20.5,3.1c-3.2,0.5-5.9,1.6-8,3.4
		c-2.2,1.8-3.2,4.5-3.2,8c0,2.7,1,5.1,2.9,7.3C308,218.4,310.9,219.5,314.8,219.5z"/>
	<path class="st0" d="M435.1,182.6l37.1,52.5h-30.1l-24-34.7L408,211.1v24h-24.5V101.7H408v76.5l31.3-33.7h32.1L435.1,182.6z"/>
	<path class="st0" d="M563.8,209.2c-1.1,3.9-2.9,7.7-5.3,11.2c-2.4,3.5-5.3,6.5-8.8,9.1c-3.4,2.6-7.5,4.6-12.1,6.2
		s-9.7,2.3-15.2,2.3c-6.3,0-12.2-1.1-17.9-3.2c-5.7-2.1-10.6-5.3-14.9-9.5s-7.7-9.3-10.2-15.3s-3.8-12.8-3.8-20.5
		c0-7.3,1.2-13.8,3.7-19.7s5.7-10.9,9.9-15c4.1-4.1,8.9-7.3,14.3-9.6s11-3.4,16.8-3.4c14.1,0,25.1,4.2,33,12.5
		c7.9,8.4,11.8,19.9,11.8,34.5c0,1.7-0.1,3.3-0.2,4.9c-0.1,1.5-0.2,2.4-0.2,2.7h-64.9c0.1,3,0.8,5.7,2.1,8.2c1.3,2.5,3,4.7,5,6.5
		s4.4,3.3,7.1,4.3c2.7,1,5.6,1.6,8.7,1.6c5.8,0,10.3-1.3,13.6-3.9c3.3-2.6,5.6-5.9,7.1-10L563.8,209.2z M540.9,179.5
		c-0.1-2.2-0.6-4.4-1.4-6.5c-0.8-2.1-2-4.1-3.7-5.7s-3.8-3-6.3-4.1c-2.5-1-5.5-1.6-8.9-1.6c-3.2,0-6,0.6-8.5,1.7
		c-2.5,1.1-4.5,2.5-6.3,4.2c-1.7,1.7-3,3.6-4,5.7c-0.9,2.1-1.4,4.2-1.6,6.3L540.9,179.5L540.9,179.5z"/>
	<path class="st0" d="M626.4,121.9c-1.4,0-2.8,0.2-4.2,0.6s-2.9,1-4.1,1.9c-1.3,0.9-2.3,2.2-3.1,3.8c-0.8,1.6-1.2,3.7-1.2,6.3v10
		h36.1v-42.8h24.5v133.5h-24.5v-69.7h-36.1v69.7H589v-69.7h-15.1v-21H589v-10.3c0-5.2,0.8-9.8,2.3-13.9s3.7-7.7,6.6-10.6
		c2.9-3,6.4-5.2,10.4-6.8c4.1-1.6,8.6-2.4,13.6-2.4c2.6,0,5,0.2,7.3,0.6s3.9,0.8,4.9,1.3v20.7c-0.6-0.2-1.5-0.5-2.8-0.6
		C630.2,122,628.5,121.9,626.4,121.9z"/>
	<path class="st0" d="M697.6,114.8c0-4.3,1.5-7.9,4.4-10.9s6.5-4.4,10.7-4.4c4.3,0,7.9,1.5,10.8,4.4c2.9,3,4.3,6.6,4.3,10.9
		c0,4.1-1.4,7.6-4.3,10.5c-2.9,3-6.5,4.4-10.8,4.4c-4.2,0-7.7-1.5-10.7-4.4S697.6,118.8,697.6,114.8z M700.6,235.2v-90.7h24.5v90.7
		H700.6z"/>
	<path class="st0" d="M772.6,189.6l-32.3-45.2h29.1c0.7,1.2,2,3.1,3.7,5.6s3.5,5.1,5.3,7.8s3.6,5.3,5.3,7.8s2.9,4.4,3.7,5.6
		l17.9-26.9h27.8l-31.7,44.4l32.8,46.3h-28.8l-19-27.8c-0.9,1.2-2.2,3.1-3.9,5.7c-1.7,2.6-3.6,5.3-5.5,8.2c-2,2.9-3.8,5.6-5.5,8.2
		c-1.7,2.6-2.9,4.5-3.7,5.7h-27.7L772.6,189.6z"/>
</g>
</svg>
